<?xml version="1.0" encoding="UTF-8"?>
<svg id="Layer_1" xmlns="http://www.w3.org/2000/svg" viewBox="0 0 500 500">
  <defs>
    <style>
      .cls-1 {
        stroke: #24b7af;
        stroke-miterlimit: 10;
      }

      .cls-1, .cls-2 {
        fill: none;
        stroke-width: 10px;
      }

      .cls-2 {
        stroke: #1e3b70;
        stroke-linejoin: round;
      }
    </style>
  </defs>
  <line class="cls-2" x1="338.4" y1="74" x2="338.4" y2="287.16"/>
  <polyline class="cls-2" points="359.38 101.69 294.76 101.69 294.76 126.45"/>
  <path class="cls-2" d="M272.66,129.11h47.56v43.64s-1.12,20.14-21.26,25.74c0,0-15.67,4.48-26.3-21.82v-47.56h0Z"/>
  <line class="cls-2" x1="297.14" y1="201.98" x2="297.14" y2="238.91"/>
  <line class="cls-2" x1="297.14" y1="245.2" x2="297.14" y2="266.32"/>
  <line class="cls-2" x1="275.37" y1="157.29" x2="306.72" y2="157.29"/>
  <path class="cls-2" d="M370.57,287.16h-157.77l-68.82-41.96s-18.46,4.76-9.51,34.97l63.22,44.2h99.45"/>
  <line class="cls-2" x1="306.72" y1="324.37" x2="320.21" y2="324.37"/>
  <rect class="cls-1" x="181.46" y="171.63" width="74.41" height="84.13"/>
  <polyline class="cls-2" points="187.62 216.95 205.52 216.95 214.47 186.73 221.75 238.91 227.9 217.51 251.29 217.51"/>
  <polyline class="cls-2" points="178.11 324.37 122.16 324.37 122.16 238.91 102.58 238.91 102.58 364.09 286.64 364.09"/>
  <line class="cls-2" x1="218.67" y1="260.59" x2="218.67" y2="284.78"/>
  <line class="cls-2" x1="153.49" y1="366.3" x2="153.49" y2="388.71"/>
  <ellipse class="cls-2" cx="153.49" cy="408.85" rx="15.39" ry="20.14"/>
  <polygon class="cls-1" points="397.42 339.23 372.75 339.23 372.75 314.57 338.13 314.57 338.13 339.23 313.47 339.23 313.47 373.85 338.13 373.85 338.13 398.52 372.75 398.52 372.75 373.85 397.42 373.85 397.42 339.23"/>
</svg>