<?xml version="1.0" encoding="UTF-8"?>
<svg id="Layer_1" xmlns="http://www.w3.org/2000/svg" viewBox="0 0 500 500">
  <defs>
    <style>
      .cls-1 {
        stroke: #36bdb4;
      }

      .cls-1, .cls-2 {
        fill: none;
        stroke-miterlimit: 10;
        stroke-width: 10px;
      }

      .cls-2 {
        stroke: #1e3b70;
      }
    </style>
  </defs>
  <path class="cls-2" d="M296.1,197.15c36.94,11.67,25.76,39.37,25.76,39.37-11.18,37.92-49.58,50.56-49.58,50.56v60.28c12.64,46.67,52.01,40.35,52.01,40.35,49.58,1.94,51.53-52.99,51.53-52.99l-.49-101.11h43.26L255.01,97.01,88.76,237.01h48.12v95.52s3.4,43.75,38.92,52.51"/>
  <path class="cls-2" d="M253.68,196.18s-42.17,5.15-27.59,46.32c0,0,11.67,30.48,46.18,44.58"/>
  <circle class="cls-1" cx="200.45" cy="390.68" r="25.28"/>
  <circle class="cls-1" cx="258.87" cy="195.4" r="7.22"/>
  <circle class="cls-1" cx="289.92" cy="196.31" r="8.12"/>
</svg>