<?xml version="1.0" encoding="UTF-8"?>
<svg id="Layer_1" xmlns="http://www.w3.org/2000/svg" viewBox="0 0 500 500">
  <defs>
    <style>
      .cls-1 {
        stroke: #24b7af;
      }

      .cls-1, .cls-2 {
        fill: none;
        stroke-miterlimit: 10;
        stroke-width: 10px;
      }

      .cls-2 {
        stroke: #1e3b70;
      }
    </style>
  </defs>
  <circle class="cls-1" cx="323.74" cy="101.12" r="31.97"/>
  <circle class="cls-1" cx="194.5" cy="184.31" r="31.97"/>
  <circle class="cls-2" cx="110.64" cy="385.21" r="21.09"/>
  <circle class="cls-2" cx="195.5" cy="345.56" r="58.68"/>
  <path class="cls-2" d="M113.03,364.13v-51.43s0-18.53,15.16-17.65h33.2"/>
  <path class="cls-2" d="M230,298.08v-51.43s0-18.53,15.16-17.65h20.68"/>
  <path class="cls-2" d="M167.81,293.82v-45.04s.47-20.13,25.52-19.81c0,0,19.37.73,24.11,13.99,0,0,2.3,5.68,1.76,16.11l.08,30.99"/>
  <path class="cls-2" d="M297.86,243.37v146.71s3.96,17.98,20.8,13.45"/>
  <path class="cls-2" d="M295.28,213.78v-51.97s.82-14.08,15.09-14.08h25.29s14.68,1.8,14.68,15.16v220.15s3.64,18.59-11.83,22.01c0,0-22.84,4.09-21.62-18.17s0-117.53,0-117.53"/>
  <path class="cls-2" d="M322.75,173.04v42.54h-46.64s-10.2,0-9.79,9.02c0,0-4.08,12.27,11.01,13.71h66.07"/>
</svg>