<?xml version="1.0" encoding="UTF-8"?>
<svg id="Layer_1" xmlns="http://www.w3.org/2000/svg" viewBox="0 0 500 500">
  <defs>
    <style>
      .cls-1 {
        stroke: #1e3b70;
        stroke-linecap: round;
        stroke-linejoin: round;
      }

      .cls-1, .cls-2 {
        fill: none;
        stroke-width: 10px;
      }

      .cls-2 {
        stroke: #36bdb4;
        stroke-miterlimit: 10;
      }
    </style>
  </defs>
  <path class="cls-1" d="M438.08,70.26s-49.12,16.65-66.22,17.78c-26.61,1.76-79.67-19.34-105.76-13.84-21.53,4.54-63.24,30.3-72.16,50.42-3,6.78,0,29.65,0,29.65h-72.16v36.57h85.01"/>
  <path class="cls-1" d="M248.31,190.84h53.38s-51.48,170.51-31.72,238.21"/>
  <path class="cls-1" d="M308.6,180.96s58.32,99.83,45.47,248.09H81.26s-12.85-127.51,40.53-238.21"/>
  <path class="cls-1" d="M265.1,101.89s6.43,22.24-16.81,34.6c0,0-44.97,9.88-36.07,33.6,0,0,9.39,27.18,44.48,2.47,0,0,18.83-11.54,39.54-.5,18.33,9.77,34.64-.16,82.54-9.39,15.18-2.93,61.78-2.47,61.78-2.47"/>
  <polyline class="cls-2" points="310.08 280.79 310.08 380.13 288.83 405.33"/>
  <line class="cls-2" x1="332.32" y1="405.33" x2="310.08" y2="380.13"/>
  <polygon class="cls-2" points="226.27 302.47 194.73 302.47 194.73 270.94 159.95 270.94 159.95 302.47 128.41 302.47 128.41 337.26 159.95 337.26 159.95 368.79 194.73 368.79 194.73 337.26 226.27 337.26 226.27 302.47"/>
</svg>