<?xml version="1.0" encoding="UTF-8"?>
<svg id="Layer_1" xmlns="http://www.w3.org/2000/svg" viewBox="0 0 500 500">
  <defs>
    <style>
      .cls-1 {
        stroke: #24b7af;
      }

      .cls-1, .cls-2, .cls-3 {
        fill: none;
        stroke-width: 10px;
      }

      .cls-1, .cls-3 {
        stroke-miterlimit: 10;
      }

      .cls-2 {
        stroke-linecap: round;
        stroke-linejoin: round;
      }

      .cls-2, .cls-3 {
        stroke: #1e3b70;
      }
    </style>
  </defs>
  <path class="cls-3" d="M192.5,258.03l-23.65,6.45s-43.62-54.09-11.34-143.09c0,0,44.5-97.72,144.83-46.24,0,0,56.71,26.17,53.22,112.55,0,0,1.74,41.88-20.94,76.78l-21.9-8.76"/>
  <path class="cls-2" d="M255.23,125.75s-36.64,43.62-89.87,53.22c0,0,2.62,89.87,75.91,115.17,0,0,47.99,13.92,78.52-55.43,0,0,14.83-27.46,16.58-50.15,0,0,2.62-12.21-13.09-11.34-15.7.87-67.18-34.03-68.05-51.48h0Z"/>
  <polyline class="cls-2" points="214.17 283.58 195.9 307.23 250.66 393.61 305.83 308.1 285.85 283.91"/>
  <path class="cls-3" d="M305.83,308.1l75.91,32.72s25.3,13.52,27.05,41.44l11.34,56.71H82.47l15.7-73.29s2.62-19.19,37.52-34.03l60.2-24.43"/>
  <path class="cls-1" d="M165.36,420.66h-27.92v-44.5s1.74-20.07,37.52-14.83c0,0,35.77-6.11,34.9,18.32l.02,34.9s1.07,5.67-6.34,5.23l-20.29.33"/>
  <path class="cls-2" d="M173.93,354.77s-5.23-48.86,32.57-75.62"/>
  <path class="cls-2" d="M289.69,281.01s53.08,18.37,45.3,100.53"/>
  <circle class="cls-1" cx="334.99" cy="401.1" r="19.56"/>
</svg>